<svg xmlns="http://www.w3.org/2000/svg" xmlns:xlink="http://www.w3.org/1999/xlink" width="38.918" height="38.92" viewBox="0 0 38.918 38.92"><defs><style>.a{fill:none;}.b{clip-path:url(#a);}.c{fill:#fff;}</style><clipPath id="a"><rect class="a" width="38.918" height="38.92"/></clipPath></defs><g class="b" transform="translate(0)"><path class="c" d="M19.477,0A19.461,19.461,0,1,1,0,19.44,19.5,19.5,0,0,1,19.477,0m17.15,19.464A17.169,17.169,0,1,0,19.463,36.628,17.191,17.191,0,0,0,36.628,19.463" transform="translate(0 0)"/><path class="c" d="M150.677,451.7c.43.079.855.121,1.262.234a8.952,8.952,0,0,1,6.5,6.042.5.5,0,0,1-.065.477,15.646,15.646,0,0,1-24.553,2.327,14.92,14.92,0,0,1-1.841-2.346.464.464,0,0,1-.061-.453,8.955,8.955,0,0,1,7.042-6.159c.234-.047.472-.07.715-.107a2.856,2.856,0,0,0,1.972,2.257,8.853,8.853,0,0,0,7.084,0,2.947,2.947,0,0,0,.374-.192,2.707,2.707,0,0,0,1.57-2.084" transform="translate(-125.723 -430.592)"/><path class="c" d="M267.9,105.281a7.332,7.332,0,0,1,4.425-6.762,6.731,6.731,0,0,1,8.341,2.883,7.681,7.681,0,0,1,1,5.019,16.886,16.886,0,0,1-.584,3.056,9.636,9.636,0,0,1-2.682,4.407,5.071,5.071,0,0,1-6.86.238,9.26,9.26,0,0,1-2.874-4.36,13.008,13.008,0,0,1-.664-3.252c-.033-.411-.075-.818-.112-1.229" transform="translate(-255.381 -93.444)"/></g></svg>